<svg id="visual" viewBox="0 0 1260 540" width="1260" height="540" xmlns="http://www.w3.org/2000/svg" xmlns:xlink="http://www.w3.org/1999/xlink" version="1.1"><rect x="0" y="0" width="1260" height="540" fill="#252422"></rect><defs><linearGradient id="grad1_0" x1="57.1%" y1="0%" x2="100%" y2="100%"><stop offset="3.333333333333332%" stop-color="#252422" stop-opacity="1"></stop><stop offset="96.66666666666667%" stop-color="#252422" stop-opacity="1"></stop></linearGradient></defs><defs><linearGradient id="grad2_0" x1="0%" y1="0%" x2="42.9%" y2="100%"><stop offset="3.333333333333332%" stop-color="#252422" stop-opacity="1"></stop><stop offset="96.66666666666667%" stop-color="#252422" stop-opacity="1"></stop></linearGradient></defs><g transform="translate(1260, 0)"><path d="M0 378C-53.3 376.3 -106.7 374.5 -144.7 349.2C-182.6 323.9 -205.2 275.1 -239 239C-272.8 202.9 -317.7 179.7 -342.8 142C-367.8 104.3 -372.9 52.1 -378 0L0 0Z" fill="#eb5e28"></path></g><g transform="translate(0, 540)"><path d="M0 -378C53 -376.1 106 -374.1 144.7 -349.2C183.3 -324.3 207.5 -276.4 239.7 -239.7C271.9 -203 311.9 -177.4 336.3 -139.3C360.7 -101.2 369.3 -50.6 378 0L0 0Z" fill="#eb5e28"></path></g></svg>