<svg id="visual" viewBox="0 0 1600 440" width="1600" height="440" xmlns="http://www.w3.org/2000/svg" xmlns:xlink="http://www.w3.org/1999/xlink" version="1.1"><rect x="0" y="0" width="1600" height="440" fill="#101010"></rect><path d="M0 211L19 232.5C38 254 76 297 114.2 314.8C152.3 332.7 190.7 325.3 228.8 306C267 286.7 305 255.3 343 253.2C381 251 419 278 457 286.8C495 295.7 533 286.3 571.2 289.2C609.3 292 647.7 307 685.8 315.7C724 324.3 762 326.7 800 307.3C838 288 876 247 914.2 243.7C952.3 240.3 990.7 274.7 1028.8 276C1067 277.3 1105 245.7 1143 228.3C1181 211 1219 208 1257 214.8C1295 221.7 1333 238.3 1371.2 247.2C1409.3 256 1447.7 257 1485.8 271.8C1524 286.7 1562 315.3 1581 329.7L1600 344L1600 0L1581 0C1562 0 1524 0 1485.8 0C1447.7 0 1409.3 0 1371.2 0C1333 0 1295 0 1257 0C1219 0 1181 0 1143 0C1105 0 1067 0 1028.8 0C990.7 0 952.3 0 914.2 0C876 0 838 0 800 0C762 0 724 0 685.8 0C647.7 0 609.3 0 571.2 0C533 0 495 0 457 0C419 0 381 0 343 0C305 0 267 0 228.8 0C190.7 0 152.3 0 114.2 0C76 0 38 0 19 0L0 0Z" fill="#64dfdf"></path><path d="M0 145L19 143.7C38 142.3 76 139.7 114.2 146.5C152.3 153.3 190.7 169.7 228.8 186.8C267 204 305 222 343 229.3C381 236.7 419 233.3 457 214.5C495 195.7 533 161.3 571.2 161.2C609.3 161 647.7 195 685.8 218.8C724 242.7 762 256.3 800 256.2C838 256 876 242 914.2 234.3C952.3 226.7 990.7 225.3 1028.8 217.7C1067 210 1105 196 1143 188.3C1181 180.7 1219 179.3 1257 192C1295 204.7 1333 231.3 1371.2 245.5C1409.3 259.7 1447.7 261.3 1485.8 253.7C1524 246 1562 229 1581 220.5L1600 212L1600 0L1581 0C1562 0 1524 0 1485.8 0C1447.7 0 1409.3 0 1371.2 0C1333 0 1295 0 1257 0C1219 0 1181 0 1143 0C1105 0 1067 0 1028.8 0C990.7 0 952.3 0 914.2 0C876 0 838 0 800 0C762 0 724 0 685.8 0C647.7 0 609.3 0 571.2 0C533 0 495 0 457 0C419 0 381 0 343 0C305 0 267 0 228.8 0C190.7 0 152.3 0 114.2 0C76 0 38 0 19 0L0 0Z" fill="#00b4f8"></path><path d="M0 133L19 127.2C38 121.3 76 109.7 114.2 115C152.3 120.3 190.7 142.7 228.8 159.8C267 177 305 189 343 179.8C381 170.7 419 140.3 457 132.5C495 124.7 533 139.3 571.2 136C609.3 132.7 647.7 111.3 685.8 115.7C724 120 762 150 800 156.8C838 163.7 876 147.3 914.2 133.5C952.3 119.7 990.7 108.3 1028.8 119.3C1067 130.3 1105 163.7 1143 168.8C1181 174 1219 151 1257 136.5C1295 122 1333 116 1371.2 109C1409.3 102 1447.7 94 1485.8 93.3C1524 92.7 1562 99.3 1581 102.7L1600 106L1600 0L1581 0C1562 0 1524 0 1485.8 0C1447.7 0 1409.3 0 1371.2 0C1333 0 1295 0 1257 0C1219 0 1181 0 1143 0C1105 0 1067 0 1028.8 0C990.7 0 952.3 0 914.2 0C876 0 838 0 800 0C762 0 724 0 685.8 0C647.7 0 609.3 0 571.2 0C533 0 495 0 457 0C419 0 381 0 343 0C305 0 267 0 228.8 0C190.7 0 152.3 0 114.2 0C76 0 38 0 19 0L0 0Z" fill="#2276ee"></path><path d="M0 51L19 57.8C38 64.7 76 78.3 114.2 87.8C152.3 97.3 190.7 102.7 228.8 96.8C267 91 305 74 343 69.3C381 64.7 419 72.3 457 70.2C495 68 533 56 571.2 52.3C609.3 48.7 647.7 53.3 685.8 63.3C724 73.3 762 88.7 800 91.2C838 93.7 876 83.3 914.2 74.7C952.3 66 990.7 59 1028.8 56.8C1067 54.7 1105 57.3 1143 59.3C1181 61.3 1219 62.7 1257 69.3C1295 76 1333 88 1371.2 92C1409.3 96 1447.7 92 1485.8 85.2C1524 78.3 1562 68.7 1581 63.8L1600 59L1600 0L1581 0C1562 0 1524 0 1485.8 0C1447.7 0 1409.3 0 1371.2 0C1333 0 1295 0 1257 0C1219 0 1181 0 1143 0C1105 0 1067 0 1028.8 0C990.7 0 952.3 0 914.2 0C876 0 838 0 800 0C762 0 724 0 685.8 0C647.7 0 609.3 0 571.2 0C533 0 495 0 457 0C419 0 381 0 343 0C305 0 267 0 228.8 0C190.7 0 152.3 0 114.2 0C76 0 38 0 19 0L0 0Z" fill="#7400b8"></path></svg>