<svg id="visual" viewBox="0 0 1600 440" width="1600" height="440" xmlns="http://www.w3.org/2000/svg" xmlns:xlink="http://www.w3.org/1999/xlink" version="1.1"><path d="M0 71L24.2 65.2C48.3 59.3 96.7 47.7 145.2 50.7C193.7 53.7 242.3 71.3 290.8 75.8C339.3 80.3 387.7 71.7 436.2 63.7C484.7 55.7 533.3 48.3 581.8 45.3C630.3 42.3 678.7 43.7 727.2 45.8C775.7 48 824.3 51 872.8 48.8C921.3 46.7 969.7 39.3 1018.2 40C1066.7 40.7 1115.3 49.3 1163.8 58.8C1212.3 68.3 1260.7 78.7 1309.2 80.8C1357.7 83 1406.3 77 1454.8 68.2C1503.3 59.3 1551.7 47.7 1575.8 41.8L1600 36L1600 0L1575.8 0C1551.7 0 1503.3 0 1454.8 0C1406.3 0 1357.7 0 1309.2 0C1260.7 0 1212.3 0 1163.8 0C1115.3 0 1066.7 0 1018.2 0C969.7 0 921.3 0 872.8 0C824.3 0 775.7 0 727.2 0C678.7 0 630.3 0 581.8 0C533.3 0 484.7 0 436.2 0C387.7 0 339.3 0 290.8 0C242.3 0 193.7 0 145.2 0C96.7 0 48.3 0 24.2 0L0 0Z" fill="#7400b8"></path><path d="M0 146L24.2 147.5C48.3 149 96.7 152 145.2 154.2C193.7 156.3 242.3 157.7 290.8 176C339.3 194.3 387.7 229.7 436.2 232.7C484.7 235.7 533.3 206.3 581.8 182.2C630.3 158 678.7 139 727.2 142C775.7 145 824.3 170 872.8 177.3C921.3 184.7 969.7 174.3 1018.2 159.7C1066.7 145 1115.3 126 1163.8 139.2C1212.3 152.3 1260.7 197.7 1309.2 205.7C1357.7 213.7 1406.3 184.3 1454.8 166.7C1503.3 149 1551.7 143 1575.8 140L1600 137L1600 34L1575.8 39.8C1551.7 45.7 1503.3 57.3 1454.8 66.2C1406.3 75 1357.7 81 1309.2 78.8C1260.7 76.7 1212.3 66.3 1163.8 56.8C1115.3 47.3 1066.7 38.7 1018.2 38C969.7 37.3 921.3 44.7 872.8 46.8C824.3 49 775.7 46 727.2 43.8C678.7 41.7 630.3 40.3 581.8 43.3C533.3 46.3 484.7 53.7 436.2 61.7C387.7 69.7 339.3 78.3 290.8 73.8C242.3 69.3 193.7 51.7 145.2 48.7C96.7 45.7 48.3 57.3 24.2 63.2L0 69Z" fill="#3c63e5"></path><path d="M0 199L24.2 204.2C48.3 209.3 96.7 219.7 145.2 221.8C193.7 224 242.3 218 290.8 231.2C339.3 244.3 387.7 276.7 436.2 286.2C484.7 295.7 533.3 282.3 581.8 260.3C630.3 238.3 678.7 207.7 727.2 210C775.7 212.3 824.3 247.7 872.8 255C921.3 262.3 969.7 241.7 1018.2 230.7C1066.7 219.7 1115.3 218.3 1163.8 233.7C1212.3 249 1260.7 281 1309.2 284.7C1357.7 288.3 1406.3 263.7 1454.8 242.5C1503.3 221.3 1551.7 203.7 1575.8 194.8L1600 186L1600 135L1575.8 138C1551.7 141 1503.3 147 1454.8 164.7C1406.3 182.3 1357.7 211.7 1309.2 203.7C1260.7 195.7 1212.3 150.3 1163.8 137.2C1115.3 124 1066.7 143 1018.2 157.7C969.7 172.3 921.3 182.7 872.8 175.3C824.3 168 775.7 143 727.2 140C678.7 137 630.3 156 581.8 180.2C533.3 204.3 484.7 233.7 436.2 230.7C387.7 227.7 339.3 192.3 290.8 174C242.3 155.7 193.7 154.3 145.2 152.2C96.7 150 48.3 147 24.2 145.5L0 144Z" fill="#0097f8"></path><path d="M0 406L24.2 406.7C48.3 407.3 96.7 408.7 145.2 405.7C193.7 402.7 242.3 395.3 290.8 396.2C339.3 397 387.7 406 436.2 403.8C484.7 401.7 533.3 388.3 581.8 382.3C630.3 376.3 678.7 377.7 727.2 381.3C775.7 385 824.3 391 872.8 397C921.3 403 969.7 409 1018.2 404.7C1066.7 400.3 1115.3 385.7 1163.8 379C1212.3 372.3 1260.7 373.7 1309.2 374.3C1357.7 375 1406.3 375 1454.8 376.5C1503.3 378 1551.7 381 1575.8 382.5L1600 384L1600 184L1575.8 192.8C1551.7 201.7 1503.3 219.3 1454.8 240.5C1406.3 261.7 1357.7 286.3 1309.2 282.7C1260.7 279 1212.3 247 1163.8 231.7C1115.3 216.3 1066.7 217.7 1018.2 228.7C969.7 239.7 921.3 260.3 872.8 253C824.3 245.7 775.7 210.3 727.2 208C678.7 205.7 630.3 236.3 581.8 258.3C533.3 280.3 484.7 293.7 436.2 284.2C387.7 274.7 339.3 242.3 290.8 229.2C242.3 216 193.7 222 145.2 219.8C96.7 217.7 48.3 207.3 24.2 202.2L0 197Z" fill="#00c0f3"></path><path d="M0 441L24.2 441C48.3 441 96.7 441 145.2 441C193.7 441 242.3 441 290.8 441C339.3 441 387.7 441 436.2 441C484.7 441 533.3 441 581.8 441C630.3 441 678.7 441 727.2 441C775.7 441 824.3 441 872.8 441C921.3 441 969.7 441 1018.2 441C1066.7 441 1115.3 441 1163.8 441C1212.3 441 1260.7 441 1309.2 441C1357.7 441 1406.3 441 1454.8 441C1503.3 441 1551.7 441 1575.8 441L1600 441L1600 382L1575.8 380.5C1551.7 379 1503.3 376 1454.8 374.5C1406.3 373 1357.7 373 1309.2 372.3C1260.7 371.7 1212.3 370.3 1163.8 377C1115.3 383.7 1066.7 398.3 1018.2 402.7C969.7 407 921.3 401 872.8 395C824.3 389 775.7 383 727.2 379.3C678.7 375.7 630.3 374.3 581.8 380.3C533.3 386.3 484.7 399.7 436.2 401.8C387.7 404 339.3 395 290.8 394.2C242.3 393.3 193.7 400.7 145.2 403.7C96.7 406.7 48.3 405.3 24.2 404.7L0 404Z" fill="#64dfdf"></path></svg>