<svg id="visual" viewBox="0 0 900 450" width="900" height="450" xmlns="http://www.w3.org/2000/svg" xmlns:xlink="http://www.w3.org/1999/xlink" version="1.1"><rect x="0" y="0" width="900" height="450" fill="#001220"></rect><defs><linearGradient id="grad1_0" x1="50%" y1="100%" x2="100%" y2="0%"><stop offset="10%" stop-color="#61dbfb" stop-opacity="1"></stop><stop offset="90%" stop-color="#61dbfb" stop-opacity="1"></stop></linearGradient></defs><defs><linearGradient id="grad1_1" x1="50%" y1="100%" x2="100%" y2="0%"><stop offset="10%" stop-color="#61dbfb" stop-opacity="1"></stop><stop offset="90%" stop-color="#001220" stop-opacity="1"></stop></linearGradient></defs><defs><linearGradient id="grad2_0" x1="0%" y1="100%" x2="50%" y2="0%"><stop offset="10%" stop-color="#61dbfb" stop-opacity="1"></stop><stop offset="90%" stop-color="#61dbfb" stop-opacity="1"></stop></linearGradient></defs><defs><linearGradient id="grad2_1" x1="0%" y1="100%" x2="50%" y2="0%"><stop offset="10%" stop-color="#001220" stop-opacity="1"></stop><stop offset="90%" stop-color="#61dbfb" stop-opacity="1"></stop></linearGradient></defs><g transform="translate(900, 450)"><path d="M-450 0C-435.5 -76.7 -421.1 -153.4 -385.4 -222.5C-349.7 -291.6 -292.8 -353.1 -225 -389.7C-157.2 -426.4 -78.6 -438.2 0 -450L0 0Z" fill="#316d89"></path><path d="M-225 0C-217.8 -38.4 -210.5 -76.7 -192.7 -111.3C-174.8 -145.8 -146.4 -176.5 -112.5 -194.9C-78.6 -213.2 -39.3 -219.1 0 -225L0 0Z" fill="#61dbfb"></path></g><g transform="translate(0, 0)"><path d="M450 0C439.4 80.7 428.8 161.4 389.7 225C350.7 288.6 283.2 335.1 213.5 369.8C143.8 404.4 71.9 427.2 0 450L0 0Z" fill="#316d89"></path><path d="M225 0C219.7 40.3 214.4 80.7 194.9 112.5C175.3 144.3 141.6 167.6 106.8 184.9C71.9 202.2 36 213.6 0 225L0 0Z" fill="#61dbfb"></path></g></svg>