<svg id="visual" viewBox="0 0 900 450" width="900" height="450" xmlns="http://www.w3.org/2000/svg" xmlns:xlink="http://www.w3.org/1999/xlink" version="1.1"><rect width="900" height="450" fill="#303030"></rect><g><g transform="translate(356 285)"><path d="M0 -94.5L81.8 -47.2L81.8 47.2L0 94.5L-81.8 47.2L-81.8 -47.2Z" fill="#3c873a"></path></g><g transform="translate(584 374)"><path d="M0 -73L63.2 -36.5L63.2 36.5L0 73L-63.2 36.5L-63.2 -36.5Z" fill="#3c873a"></path></g><g transform="translate(754 178)"><path d="M0 -71L61.5 -35.5L61.5 35.5L0 71L-61.5 35.5L-61.5 -35.5Z" fill="#3c873a"></path></g><g transform="translate(18 197)"><path d="M0 -87L75.3 -43.5L75.3 43.5L0 87L-75.3 43.5L-75.3 -43.5Z" fill="#3c873a"></path></g><g transform="translate(301 85)"><path d="M0 -77L66.7 -38.5L66.7 38.5L0 77L-66.7 38.5L-66.7 -38.5Z" fill="#3c873a"></path></g><g transform="translate(876 360)"><path d="M0 -63L54.6 -31.5L54.6 31.5L0 63L-54.6 31.5L-54.6 -31.5Z" fill="#3c873a"></path></g></g></svg>