<svg id="visual" viewBox="0 0 900 450" width="900" height="450" xmlns="http://www.w3.org/2000/svg" xmlns:xlink="http://www.w3.org/1999/xlink" version="1.1"><rect width="900" height="450" fill="#004b23"></rect><g><g transform="translate(819 315)"><path d="M0 -81.9L70.9 -41L70.9 41L0 81.9L-70.9 41L-70.9 -41Z" fill="#ccff33"></path></g><g transform="translate(657 247)"><path d="M0 -42L36.4 -21L36.4 21L0 42L-36.4 21L-36.4 -21Z" fill="#ccff33"></path></g><g transform="translate(17 99)"><path d="M0 -64L55.4 -32L55.4 32L0 64L-55.4 32L-55.4 -32Z" fill="#ccff33"></path></g><g transform="translate(371 24)"><path d="M0 -59L51.1 -29.5L51.1 29.5L0 59L-51.1 29.5L-51.1 -29.5Z" fill="#ccff33"></path></g><g transform="translate(151 264)"><path d="M0 -47L40.7 -23.5L40.7 23.5L0 47L-40.7 23.5L-40.7 -23.5Z" fill="#ccff33"></path></g><g transform="translate(727 2)"><path d="M0 -57L49.4 -28.5L49.4 28.5L0 57L-49.4 28.5L-49.4 -28.5Z" fill="#ccff33"></path></g><g transform="translate(483 419)"><path d="M0 -56L48.5 -28L48.5 28L0 56L-48.5 28L-48.5 -28Z" fill="#ccff33"></path></g><g transform="translate(558 87)"><path d="M0 -64L55.4 -32L55.4 32L0 64L-55.4 32L-55.4 -32Z" fill="#ccff33"></path></g><g transform="translate(12 373)"><path d="M0 -42L36.4 -21L36.4 21L0 42L-36.4 21L-36.4 -21Z" fill="#ccff33"></path></g><g transform="translate(195 95)"><path d="M0 -45L39 -22.5L39 22.5L0 45L-39 22.5L-39 -22.5Z" fill="#ccff33"></path></g><g transform="translate(302 405)"><path d="M0 -53L45.9 -26.5L45.9 26.5L0 53L-45.9 26.5L-45.9 -26.5Z" fill="#ccff33"></path></g><g transform="translate(842 127)"><path d="M0 -79L68.4 -39.5L68.4 39.5L0 79L-68.4 39.5L-68.4 -39.5Z" fill="#ccff33"></path></g><g transform="translate(460 228)"><path d="M0 -41L35.5 -20.5L35.5 20.5L0 41L-35.5 20.5L-35.5 -20.5Z" fill="#ccff33"></path></g><g transform="translate(663 439)"><path d="M0 -79L68.4 -39.5L68.4 39.5L0 79L-68.4 39.5L-68.4 -39.5Z" fill="#ccff33"></path></g></g></svg>