<svg id="visual" viewBox="0 0 900 450" width="900" height="450" xmlns="http://www.w3.org/2000/svg" xmlns:xlink="http://www.w3.org/1999/xlink" version="1.1"><path d="M593 450L606.5 439.3C620 428.7 647 407.3 662 385.8C677 364.3 680 342.7 708.5 321.2C737 299.7 791 278.3 810.5 257C830 235.7 815 214.3 804.5 193C794 171.7 788 150.3 734 128.8C680 107.3 578 85.7 572 64.2C566 42.7 656 21.3 701 10.7L746 0L900 0L900 10.7C900 21.3 900 42.7 900 64.2C900 85.7 900 107.3 900 128.8C900 150.3 900 171.7 900 193C900 214.3 900 235.7 900 257C900 278.3 900 299.7 900 321.2C900 342.7 900 364.3 900 385.8C900 407.3 900 428.7 900 439.3L900 450Z" fill="#a067ff"></path><path d="M287 450L332 439.3C377 428.7 467 407.3 512 385.8C557 364.3 557 342.7 587 321.2C617 299.7 677 278.3 672.5 257C668 235.7 599 214.3 588.5 193C578 171.7 626 150.3 591.5 128.8C557 107.3 440 85.7 426.5 64.2C413 42.7 503 21.3 548 10.7L593 0L747 0L702 10.7C657 21.3 567 42.7 573 64.2C579 85.7 681 107.3 735 128.8C789 150.3 795 171.7 805.5 193C816 214.3 831 235.7 811.5 257C792 278.3 738 299.7 709.5 321.2C681 342.7 678 364.3 663 385.8C648 407.3 621 428.7 607.5 439.3L594 450Z" fill="#6600ff"></path><path d="M269 450L288.5 439.3C308 428.7 347 407.3 374 385.8C401 364.3 416 342.7 467 321.2C518 299.7 605 278.3 612.5 257C620 235.7 548 214.3 533 193C518 171.7 560 150.3 513.5 128.8C467 107.3 332 85.7 317 64.2C302 42.7 407 21.3 459.5 10.7L512 0L594 0L549 10.7C504 21.3 414 42.7 427.5 64.2C441 85.7 558 107.3 592.5 128.8C627 150.3 579 171.7 589.5 193C600 214.3 669 235.7 673.5 257C678 278.3 618 299.7 588 321.2C558 342.7 558 364.3 513 385.8C468 407.3 378 428.7 333 439.3L288 450Z" fill="#4b03ba"></path><path d="M143 450L152 439.3C161 428.7 179 407.3 183.5 385.8C188 364.3 179 342.7 191 321.2C203 299.7 236 278.3 239 257C242 235.7 215 214.3 209 193C203 171.7 218 150.3 204.5 128.8C191 107.3 149 85.7 155 64.2C161 42.7 215 21.3 242 10.7L269 0L513 0L460.5 10.7C408 21.3 303 42.7 318 64.2C333 85.7 468 107.3 514.5 128.8C561 150.3 519 171.7 534 193C549 214.3 621 235.7 613.5 257C606 278.3 519 299.7 468 321.2C417 342.7 402 364.3 375 385.8C348 407.3 309 428.7 289.5 439.3L270 450Z" fill="#4b03ba"></path><path d="M26 450L33.5 439.3C41 428.7 56 407.3 74 385.8C92 364.3 113 342.7 122 321.2C131 299.7 128 278.3 129.5 257C131 235.7 137 214.3 128 193C119 171.7 95 150.3 80 128.8C65 107.3 59 85.7 59 64.2C59 42.7 65 21.3 68 10.7L71 0L270 0L243 10.7C216 21.3 162 42.7 156 64.2C150 85.7 192 107.3 205.5 128.8C219 150.3 204 171.7 210 193C216 214.3 243 235.7 240 257C237 278.3 204 299.7 192 321.2C180 342.7 189 364.3 184.5 385.8C180 407.3 162 428.7 153 439.3L144 450Z" fill="#6600ff"></path><path d="M0 450L0 439.3C0 428.7 0 407.3 0 385.8C0 364.3 0 342.7 0 321.2C0 299.7 0 278.3 0 257C0 235.7 0 214.3 0 193C0 171.7 0 150.3 0 128.8C0 107.3 0 85.7 0 64.2C0 42.7 0 21.3 0 10.7L0 0L72 0L69 10.7C66 21.3 60 42.7 60 64.2C60 85.7 66 107.3 81 128.8C96 150.3 120 171.7 129 193C138 214.3 132 235.7 130.5 257C129 278.3 132 299.7 123 321.2C114 342.7 93 364.3 75 385.8C57 407.3 42 428.7 34.5 439.3L27 450Z" fill="#a067ff"></path></svg>