<svg id="visual" viewBox="0 0 900 450" width="900" height="450" xmlns="http://www.w3.org/2000/svg" xmlns:xlink="http://www.w3.org/1999/xlink" version="1.1"><rect width="900" height="450" fill="#931F1F"></rect><g><g transform="translate(350 75)"><path d="M61.6 -21.8C70.1 6.3 60.7 38.4 37.7 56.1C14.7 73.8 -21.8 77.1 -44.8 60.7C-67.7 44.3 -77 8.1 -67.2 -21.6C-57.5 -51.4 -28.8 -74.8 -1.1 -74.4C26.5 -74.1 53 -50 61.6 -21.8Z" stroke="#F7760E" fill="none" stroke-width="20"></path></g><g transform="translate(794 195)"><path d="M65.3 -18.7C73.8 5 62.5 37.7 40 53.7C17.5 69.7 -16.1 69.1 -37.2 53.3C-58.2 37.5 -66.7 6.6 -58.4 -16.8C-50.1 -40.1 -25 -55.8 1.7 -56.4C28.4 -56.9 56.8 -42.3 65.3 -18.7Z" stroke="#F7760E" fill="none" stroke-width="20"></path></g><g transform="translate(73 38)"><path d="M73.7 -23.1C82.9 4.3 69.1 40.2 45.1 56.2C21.1 72.3 -13.1 68.6 -38.2 50.8C-63.2 33 -79.3 1 -71.4 -24.6C-63.6 -50.2 -31.8 -69.5 0.2 -69.6C32.3 -69.6 64.6 -50.5 73.7 -23.1Z" stroke="#F7760E" fill="none" stroke-width="20"></path></g><g transform="translate(637 30)"><path d="M68.5 -23.8C75.8 0.1 59.7 30 36.7 45.5C13.8 61 -16 62 -37.4 47.4C-58.8 32.8 -71.9 2.6 -64.2 -21.8C-56.6 -46.2 -28.3 -64.7 1.2 -65.1C30.6 -65.5 61.3 -47.7 68.5 -23.8Z" stroke="#F7760E" fill="none" stroke-width="20"></path></g><g transform="translate(466 288)"><path d="M52.4 -20C58.9 2.8 48.7 27.9 29.4 42.4C10.1 56.9 -18.4 60.8 -35.6 48.4C-52.8 36.1 -58.6 7.6 -50.8 -17.1C-43 -41.8 -21.5 -62.7 0.8 -63C23 -63.2 46 -42.8 52.4 -20Z" stroke="#F7760E" fill="none" stroke-width="20"></path></g><g transform="translate(220 364)"><path d="M47 -16.6C52.3 0.8 41.8 22 26 32.8C10.2 43.5 -11 43.9 -25.9 33.6C-40.7 23.2 -49.3 2.2 -44 -15.3C-38.6 -32.9 -19.3 -47 0.8 -47.2C20.9 -47.5 41.8 -33.9 47 -16.6Z" stroke="#F7760E" fill="none" stroke-width="20"></path></g><g transform="translate(12 445)"><path d="M62.1 -21.6C70.8 6.6 61.5 39.2 40 54.7C18.5 70.2 -15.1 68.6 -38.3 52C-61.4 35.3 -74.1 3.5 -66 -23.9C-57.9 -51.3 -28.9 -74.4 -1.1 -74.1C26.7 -73.7 53.4 -49.9 62.1 -21.6Z" stroke="#F7760E" fill="none" stroke-width="20"></path></g><g transform="translate(663 423)"><path d="M48.2 -15.9C54.3 3.1 45.4 26.8 29.4 37.7C13.4 48.7 -9.8 47.1 -26.5 35.2C-43.2 23.4 -53.3 1.4 -47.8 -16.8C-42.3 -35 -21.2 -49.4 -0.1 -49.4C21 -49.4 42.1 -34.9 48.2 -15.9Z" stroke="#F7760E" fill="none" stroke-width="20"></path></g></g></svg>