<svg id="visual" viewBox="0 0 900 450" width="900" height="450" xmlns="http://www.w3.org/2000/svg" xmlns:xlink="http://www.w3.org/1999/xlink" version="1.1"><rect x="0" y="0" width="900" height="450" fill="#001220"></rect><defs><linearGradient id="grad1_0" x1="50%" y1="0%" x2="100%" y2="100%"><stop offset="10%" stop-color="#fbae3c" stop-opacity="1"></stop><stop offset="90%" stop-color="#fbae3c" stop-opacity="1"></stop></linearGradient></defs><defs><linearGradient id="grad1_1" x1="50%" y1="0%" x2="100%" y2="100%"><stop offset="10%" stop-color="#fbae3c" stop-opacity="1"></stop><stop offset="90%" stop-color="#f17c53" stop-opacity="1"></stop></linearGradient></defs><defs><linearGradient id="grad1_2" x1="50%" y1="0%" x2="100%" y2="100%"><stop offset="10%" stop-color="#cc5867" stop-opacity="1"></stop><stop offset="90%" stop-color="#f17c53" stop-opacity="1"></stop></linearGradient></defs><defs><linearGradient id="grad1_3" x1="50%" y1="0%" x2="100%" y2="100%"><stop offset="10%" stop-color="#cc5867" stop-opacity="1"></stop><stop offset="90%" stop-color="#96446e" stop-opacity="1"></stop></linearGradient></defs><defs><linearGradient id="grad1_4" x1="50%" y1="0%" x2="100%" y2="100%"><stop offset="10%" stop-color="#593762" stop-opacity="1"></stop><stop offset="90%" stop-color="#96446e" stop-opacity="1"></stop></linearGradient></defs><defs><linearGradient id="grad1_5" x1="50%" y1="0%" x2="100%" y2="100%"><stop offset="10%" stop-color="#593762" stop-opacity="1"></stop><stop offset="90%" stop-color="#232745" stop-opacity="1"></stop></linearGradient></defs><defs><linearGradient id="grad1_6" x1="50%" y1="0%" x2="100%" y2="100%"><stop offset="10%" stop-color="#001220" stop-opacity="1"></stop><stop offset="90%" stop-color="#232745" stop-opacity="1"></stop></linearGradient></defs><defs><linearGradient id="grad2_0" x1="0%" y1="0%" x2="50%" y2="100%"><stop offset="10%" stop-color="#fbae3c" stop-opacity="1"></stop><stop offset="90%" stop-color="#fbae3c" stop-opacity="1"></stop></linearGradient></defs><defs><linearGradient id="grad2_1" x1="0%" y1="0%" x2="50%" y2="100%"><stop offset="10%" stop-color="#f17c53" stop-opacity="1"></stop><stop offset="90%" stop-color="#fbae3c" stop-opacity="1"></stop></linearGradient></defs><defs><linearGradient id="grad2_2" x1="0%" y1="0%" x2="50%" y2="100%"><stop offset="10%" stop-color="#f17c53" stop-opacity="1"></stop><stop offset="90%" stop-color="#cc5867" stop-opacity="1"></stop></linearGradient></defs><defs><linearGradient id="grad2_3" x1="0%" y1="0%" x2="50%" y2="100%"><stop offset="10%" stop-color="#96446e" stop-opacity="1"></stop><stop offset="90%" stop-color="#cc5867" stop-opacity="1"></stop></linearGradient></defs><defs><linearGradient id="grad2_4" x1="0%" y1="0%" x2="50%" y2="100%"><stop offset="10%" stop-color="#96446e" stop-opacity="1"></stop><stop offset="90%" stop-color="#593762" stop-opacity="1"></stop></linearGradient></defs><defs><linearGradient id="grad2_5" x1="0%" y1="0%" x2="50%" y2="100%"><stop offset="10%" stop-color="#232745" stop-opacity="1"></stop><stop offset="90%" stop-color="#593762" stop-opacity="1"></stop></linearGradient></defs><defs><linearGradient id="grad2_6" x1="0%" y1="0%" x2="50%" y2="100%"><stop offset="10%" stop-color="#232745" stop-opacity="1"></stop><stop offset="90%" stop-color="#001220" stop-opacity="1"></stop></linearGradient></defs><g transform="translate(900, 0)"><path d="M0 450C-25.2 439.7 -50.3 429.3 -73.6 417.6C-96.9 405.8 -118.4 392.6 -137.8 378.7C-157.3 364.8 -174.7 350.3 -199.5 345.5C-224.3 340.8 -256.6 345.9 -285.4 340.1C-314.2 334.3 -339.5 317.7 -344.7 289.3C-349.9 260.8 -335.1 220.5 -334.3 193C-333.5 165.5 -346.9 150.8 -369.3 134.4C-391.7 118 -423.3 100 -438.2 77.3C-453.2 54.6 -451.6 27.3 -450 0L0 0Z" fill="#0f1d33"></path><path d="M0 385.7C-21.6 376.9 -43.1 368 -63.1 357.9C-83.1 347.8 -101.5 336.5 -118.1 324.6C-134.8 312.7 -149.7 300.2 -171 296.2C-192.3 292.1 -219.9 296.5 -244.6 291.5C-269.3 286.6 -291 272.3 -295.5 247.9C-299.9 223.5 -287.2 189 -286.5 165.4C-285.9 141.9 -297.3 129.3 -316.5 115.2C-335.8 101.2 -362.8 85.7 -375.6 66.2C-388.5 46.8 -387.1 23.4 -385.7 0L0 0Z" fill="#3d3056"></path><path d="M0 321.4C-18 314 -35.9 306.7 -52.6 298.3C-69.2 289.8 -84.6 280.4 -98.5 270.5C-112.3 260.6 -124.8 250.2 -142.5 246.8C-160.2 243.4 -183.3 247.1 -203.9 242.9C-224.4 238.8 -242.5 226.9 -246.2 206.6C-250 186.3 -239.3 157.5 -238.8 137.9C-238.2 118.2 -247.8 107.7 -263.8 96C-279.8 84.3 -302.3 71.4 -313 55.2C-323.7 39 -322.6 19.5 -321.4 0L0 0Z" fill="#773d6b"></path><path d="M0 257.1C-14.4 251.2 -28.8 245.3 -42.1 238.6C-55.4 231.9 -67.7 224.3 -78.8 216.4C-89.9 208.5 -99.8 200.2 -114 197.5C-128.2 194.8 -146.6 197.7 -163.1 194.4C-179.5 191.1 -194 181.6 -197 165.3C-200 149 -191.5 126 -191 110.3C-190.6 94.6 -198.2 86.2 -211 76.8C-223.9 67.4 -241.9 57.1 -250.4 44.2C-259 31.2 -258.1 15.6 -257.1 0L0 0Z" fill="#b34c6d"></path><path d="M0 192.9C-10.8 188.4 -21.6 184 -31.6 179C-41.5 173.9 -50.7 168.2 -59.1 162.3C-67.4 156.4 -74.9 150.1 -85.5 148.1C-96.1 146.1 -110 148.2 -122.3 145.8C-134.7 143.3 -145.5 136.2 -147.7 124C-150 111.8 -143.6 94.5 -143.3 82.7C-142.9 70.9 -148.7 64.6 -158.3 57.6C-167.9 50.6 -181.4 42.8 -187.8 33.1C-194.2 23.4 -193.5 11.7 -192.9 0L0 0Z" fill="#e1685e"></path><path d="M0 128.6C-7.2 125.6 -14.4 122.7 -21 119.3C-27.7 115.9 -33.8 112.2 -39.4 108.2C-44.9 104.2 -49.9 100.1 -57 98.7C-64.1 97.4 -73.3 98.8 -81.5 97.2C-89.8 95.5 -97 90.8 -98.5 82.6C-100 74.5 -95.7 63 -95.5 55.1C-95.3 47.3 -99.1 43.1 -105.5 38.4C-111.9 33.7 -120.9 28.6 -125.2 22.1C-129.5 15.6 -129 7.8 -128.6 0L0 0Z" fill="#f99447"></path><path d="M0 64.3C-3.6 62.8 -7.2 61.3 -10.5 59.7C-13.8 58 -16.9 56.1 -19.7 54.1C-22.5 52.1 -25 50 -28.5 49.4C-32 48.7 -36.7 49.4 -40.8 48.6C-44.9 47.8 -48.5 45.4 -49.2 41.3C-50 37.3 -47.9 31.5 -47.8 27.6C-47.6 23.6 -49.6 21.5 -52.8 19.2C-56 16.9 -60.5 14.3 -62.6 11C-64.7 7.8 -64.5 3.9 -64.3 0L0 0Z" fill="#fbae3c"></path></g><g transform="translate(0, 450)"><path d="M0 -450C21.6 -419.5 43.2 -389 67.2 -381.1C91.2 -373.3 117.6 -388.1 140.9 -387.2C164.2 -386.2 184.3 -369.3 205 -355.1C225.7 -340.8 247.1 -329.1 260.3 -310.2C273.6 -291.4 278.7 -265.4 296.5 -248.8C314.2 -232.1 344.7 -224.7 359.4 -207.5C374.1 -190.3 373.1 -163.3 387.2 -140.9C401.2 -118.6 430.2 -100.9 443.2 -78.1C456.1 -55.4 453.1 -27.7 450 0L0 0Z" fill="#0f1d33"></path><path d="M0 -385.7C18.5 -359.6 37 -333.4 57.6 -326.7C78.2 -320 100.8 -332.7 120.8 -331.8C140.7 -331 157.9 -316.6 175.7 -304.3C193.5 -292.1 211.8 -282.1 223.1 -265.9C234.5 -249.8 238.9 -227.5 254.1 -213.2C269.3 -198.9 295.4 -192.6 308.1 -177.9C320.7 -163.1 319.8 -139.9 331.8 -120.8C343.9 -101.6 368.7 -86.4 379.9 -67C391 -47.5 388.3 -23.8 385.7 0L0 0Z" fill="#3d3056"></path><path d="M0 -321.4C15.4 -299.6 30.8 -277.8 48 -272.2C65.2 -266.6 84 -277.2 100.7 -276.5C117.3 -275.8 131.6 -263.8 146.4 -253.6C161.2 -243.4 176.5 -235.1 185.9 -221.6C195.4 -208.1 199.1 -189.6 211.8 -177.7C224.5 -165.8 246.2 -160.5 256.7 -148.2C267.2 -135.9 266.5 -116.6 276.5 -100.7C286.5 -84.7 307.3 -72 316.5 -55.8C325.8 -39.6 323.6 -19.8 321.4 0L0 0Z" fill="#773d6b"></path><path d="M0 -257.1C12.3 -239.7 24.7 -222.3 38.4 -217.8C52.1 -213.3 67.2 -221.8 80.5 -221.2C93.8 -220.7 105.3 -211.1 117.1 -202.9C129 -194.7 141.2 -188.1 148.8 -177.3C156.3 -166.5 159.2 -151.7 169.4 -142.1C179.6 -132.6 197 -128.4 205.4 -118.6C213.8 -108.7 213.2 -93.3 221.2 -80.5C229.2 -67.7 245.8 -57.6 253.2 -44.7C260.7 -31.7 258.9 -15.8 257.1 0L0 0Z" fill="#b34c6d"></path><path d="M0 -192.9C9.3 -179.8 18.5 -166.7 28.8 -163.3C39.1 -160 50.4 -166.3 60.4 -165.9C70.4 -165.5 79 -158.3 87.9 -152.2C96.7 -146.1 105.9 -141 111.6 -133C117.2 -124.9 119.4 -113.8 127.1 -106.6C134.7 -99.5 147.7 -96.3 154 -88.9C160.3 -81.6 159.9 -70 165.9 -60.4C171.9 -50.8 184.4 -43.2 189.9 -33.5C195.5 -23.8 194.2 -11.9 192.9 0L0 0Z" fill="#e1685e"></path><path d="M0 -128.6C6.2 -119.9 12.3 -111.1 19.2 -108.9C26.1 -106.7 33.6 -110.9 40.3 -110.6C46.9 -110.3 52.6 -105.5 58.6 -101.4C64.5 -97.4 70.6 -94 74.4 -88.6C78.2 -83.3 79.6 -75.8 84.7 -71.1C89.8 -66.3 98.5 -64.2 102.7 -59.3C106.9 -54.4 106.6 -46.6 110.6 -40.3C114.6 -33.9 122.9 -28.8 126.6 -22.3C130.3 -15.8 129.4 -7.9 128.6 0L0 0Z" fill="#f99447"></path><path d="M0 -64.3C3.1 -59.9 6.2 -55.6 9.6 -54.4C13 -53.3 16.8 -55.4 20.1 -55.3C23.5 -55.2 26.3 -52.8 29.3 -50.7C32.2 -48.7 35.3 -47 37.2 -44.3C39.1 -41.6 39.8 -37.9 42.4 -35.5C44.9 -33.2 49.2 -32.1 51.3 -29.6C53.4 -27.2 53.3 -23.3 55.3 -20.1C57.3 -16.9 61.5 -14.4 63.3 -11.2C65.2 -7.9 64.7 -4 64.3 0L0 0Z" fill="#fbae3c"></path></g></svg>